<svg width="20" height="20" viewBox="0 0 20 20" fill="none" xmlns="http://www.w3.org/2000/svg">
<path d="M11.875 15H2.5L2.49812 5.56625L9.64437 10.5138C9.74887 10.5861 9.87293 10.6248 10 10.6248C10.1271 10.6248 10.2511 10.5861 10.3556 10.5138L17.5 5.56875V11.25H18.75V5C18.7495 4.66863 18.6176 4.35098 18.3833 4.11666C18.149 3.88235 17.8314 3.7505 17.5 3.75H2.5C2.16858 3.75033 1.85083 3.88213 1.61648 4.11648C1.38213 4.35083 1.25033 4.66858 1.25 5V15C1.2505 15.3314 1.38235 15.649 1.61666 15.8833C1.85098 16.1176 2.16863 16.2495 2.5 16.25H11.875V15ZM16.1244 5L10 9.24L3.87563 5H16.1244Z" fill="white"/>
<path d="M16.25 17.5009C17.6307 17.5009 18.75 16.3814 18.75 15.0004C18.75 13.6195 17.6307 12.5 16.25 12.5C14.8693 12.5 13.75 13.6195 13.75 15.0004C13.75 16.3814 14.8693 17.5009 16.25 17.5009Z" fill="white"/>
</svg>
