<svg width="20" height="20" viewBox="0 0 20 20" fill="none" xmlns="http://www.w3.org/2000/svg">
<path d="M9.99986 15L6.19361 9.625C5.5706 8.88942 5.16939 7.99197 5.03671 7.03718C4.90403 6.08239 5.04533 5.10956 5.44418 4.23197C5.84302 3.35439 6.48298 2.60818 7.28952 2.08024C8.09607 1.55231 9.036 1.26439 9.99986 1.25C11.3359 1.2632 12.6124 1.80537 13.5495 2.75776C14.4867 3.71015 15.0082 4.99512 14.9999 6.33125C15.0004 7.49683 14.6035 8.62778 13.8749 9.5375L9.99986 15ZM9.99986 2.5C8.99477 2.51154 8.03534 2.92149 7.33224 3.63982C6.62915 4.35815 6.23986 5.32614 6.24986 6.33125C6.25405 7.24864 6.5841 8.13469 7.18111 8.83125L9.99986 12.825L12.8936 8.75C13.4437 8.0634 13.7454 7.211 13.7499 6.33125C13.7599 5.32614 13.3706 4.35815 12.6675 3.63982C11.9644 2.92149 11.005 2.51154 9.99986 2.5Z" fill="white"/>
<path d="M10 6.875C10.6904 6.875 11.25 6.31536 11.25 5.625C11.25 4.93464 10.6904 4.375 10 4.375C9.30964 4.375 8.75 4.93464 8.75 5.625C8.75 6.31536 9.30964 6.875 10 6.875Z" fill="white"/>
<path d="M17.5 7.5H16.25V8.75H17.5V17.5H2.5V8.75H3.75V7.5H2.5C2.16848 7.5 1.85054 7.6317 1.61612 7.86612C1.3817 8.10054 1.25 8.41848 1.25 8.75V17.5C1.25 17.8315 1.3817 18.1495 1.61612 18.3839C1.85054 18.6183 2.16848 18.75 2.5 18.75H17.5C17.8315 18.75 18.1495 18.6183 18.3839 18.3839C18.6183 18.1495 18.75 17.8315 18.75 17.5V8.75C18.75 8.41848 18.6183 8.10054 18.3839 7.86612C18.1495 7.6317 17.8315 7.5 17.5 7.5Z" fill="white"/>
</svg>
