<svg width="20" height="20" viewBox="0 0 20 20" fill="none" xmlns="http://www.w3.org/2000/svg">
<path d="M15 8.12556H13.75C13.7495 7.62834 13.5518 7.15163 13.2003 6.80004C12.8488 6.44846 12.3721 6.25072 11.875 6.25022V5C12.7035 5.00099 13.4978 5.33061 14.0836 5.91655C14.6694 6.50249 14.999 7.29691 15 8.12556Z" fill="white"/>
<path d="M17.5001 8.125H16.2501C16.2488 6.96508 15.7875 5.85305 14.9673 5.03287C14.1471 4.21269 13.0351 3.75132 11.8751 3.75V2.5C13.3665 2.50165 14.7963 3.09482 15.8508 4.14935C16.9053 5.20389 17.4985 6.63367 17.5001 8.125ZM16.2501 18.125H16.1439C3.86264 17.4187 2.11889 7.05625 1.87514 3.89375C1.83705 3.39797 1.99745 2.90736 2.32106 2.52983C2.64467 2.1523 3.10499 1.91878 3.60077 1.88063C3.65035 1.87688 3.70014 1.875 3.75014 1.875H7.04389C7.29424 1.87476 7.5389 1.94969 7.74616 2.0901C7.95343 2.23051 8.11377 2.42992 8.20639 2.6625L9.15639 5C9.24786 5.22722 9.27056 5.4763 9.22167 5.71631C9.17278 5.95631 9.05446 6.17667 8.88139 6.35L7.55014 7.69375C7.75725 8.87583 8.32289 9.96561 9.17035 10.8153C10.0178 11.665 11.1061 12.2335 12.2876 12.4437L13.6439 11.1C13.8198 10.9288 14.0423 10.8133 14.2834 10.7677C14.5246 10.7221 14.7739 10.7486 15.0001 10.8438L17.3564 11.7875C17.5855 11.8831 17.7809 12.0446 17.9178 12.2517C18.0547 12.4587 18.1269 12.7018 18.1251 12.95V16.25C18.1251 16.7473 17.9276 17.2242 17.576 17.5758C17.2243 17.9275 16.7474 18.125 16.2501 18.125ZM3.75014 3.125C3.66807 3.12475 3.58675 3.14068 3.51082 3.17186C3.4349 3.20304 3.36586 3.24887 3.30765 3.30673C3.24944 3.36459 3.2032 3.43336 3.17156 3.50909C3.13992 3.58483 3.12352 3.66605 3.12327 3.74813C3.12327 3.76563 3.12389 3.78292 3.12514 3.8C3.41264 7.5 5.25639 16.25 16.2126 16.875C16.3781 16.8849 16.5407 16.8287 16.6647 16.7188C16.7887 16.6088 16.8639 16.4542 16.8739 16.2887L16.8751 16.25V12.95L14.5189 12.0062L12.7251 13.7875L12.4251 13.75C6.98764 13.0687 6.25014 7.63125 6.25014 7.575L6.21264 7.275L7.98764 5.48125L7.05014 3.125H3.75014Z" fill="white"/>
</svg>
